<svg xmlns="http://www.w3.org/2000/svg">
  <symbol id="theme-sun" viewBox="0 0 16 16">
    <circle cx="8" cy="8" r="3" fill="currentColor"/>
    <g stroke="currentColor" stroke-width="1" stroke-linecap="round">
      <line x1="8" y1="1" x2="8" y2="3"/>
      <line x1="8" y1="13" x2="8" y2="15"/>
      <line x1="1" y1="8" x2="3" y2="8"/>
      <line x1="13" y1="8" x2="15" y2="8"/>
      <line x1="2.5" y1="2.5" x2="3.5" y2="3.5"/>
      <line x1="12.5" y1="12.5" x2="13.5" y2="13.5"/>
      <line x1="12.5" y1="3.5" x2="13.5" y2="2.5"/>
      <line x1="2.5" y1="13.5" x2="3.5" y2="12.5"/>
    </g>
  </symbol>
  <symbol id="theme-moon" viewBox="0 0 16 16">
    <path d="M11 9a5 5 0 1 1-4-7 6 6 0 1 0 4 7z" fill="currentColor"/>
  </symbol>
  <symbol id="theme-auto" viewBox="0 0 16 16">
    <path d="M8 0a8 8 0 0 0 0 16V0z" fill="currentColor"/>
    <path d="M8 0a8 8 0 0 1 0 16V0z" fill="currentColor" opacity=".5"/>
  </symbol>
</svg>
